<svg viewBox="0 0 1285 602" xmlns="http://www.w3.org/2000/svg" xml:space="preserve" style="fill-rule:evenodd;clip-rule:evenodd;stroke-linejoin:round;stroke-miterlimit:2"><path d="M1282.89 349.358h-104.7l28.5-161.4h-54l-36.6 207h158.7l8.1-45.6z" style="fill-rule:nonzero"/><path d="M996.05 187.958c1.561 60.474-38.332 119.687-85.144 163.593 0 0-4.135 3.788-6.18 5.61l-19.94 37.797h57.3l26.4-53.7h65.1l7.8 53.7h58.8l-36.3-207H996.05zm31.536 111.3h-38.7l30-61.2 8.7 61.2z"/><path d="M816.168 394.958h-29.782l29.1-165h-67.5l7.8-42h188.4l-7.8 42h-66.9l-25.719 145.829a652.59 652.59 0 0 1-27.599 19.171zM697.586 394.958l36.6-207h-54l-36.6 207h54zM594.713 283.375c26.1-8.1 39-25.8 39-48.9 0-22.8-15.3-41.4-44.7-45-10.5-1.2-15.3-1.2-26.4-1.2h-84.9l-36.6 207h82.5c13.2 0 20.1 0 30.9-1.2 31.5-3.6 71.4-23.7 71.4-65.4 0-21.9-9.9-38.1-31.2-45.3zm-70.5-53.1h24.3c4.8 0 9.6.3 13.5.9 8.4 1.2 13.5 6 13.5 15 0 14.7-8.4 21-20.4 22.8-4.2.6-8.7.9-13.5.9h-24.3l6.9-39.6zm21 122.7c-4.2.3-8.7.3-13.5.3h-29.1l7.8-44.4h27.6c4.8 0 9.6 0 13.5.3 9.6.9 17.4 6.9 17.4 18.3 0 15.6-12.9 24.9-23.7 25.5zM439.613 235.075c0-29.4-21.6-42.3-47.7-45.3-10.8-1.2-19.2-1.5-32.1-1.5h-82.2l-36.6 207h54l13.8-78.6h12.3c6 0 10.8 0 16.8.3 12.6.9 19.2 12.6 19.2 32.4 0 23.7.6 34.8 2.1 45.9h58.8c-4.5-9.9-6.9-22.8-6.9-39.9 0-32.7-6-50.4-24.6-58.5 34.8-9 53.1-30.3 53.1-61.8zm-123.9 42.6 8.4-47.4h21c5.7 0 10.5 0 14.4.3 12 .9 21.3 5.1 21.3 18.6 0 21-15 27-30.9 28.2-3.9.3-8.7.3-14.4.3h-19.8zM132.413 184.075c-67.2 0-120.6 47.7-120.6 125.7 0 51.3 35.7 89.7 99 89.7 67.2 0 120.6-47.7 120.6-125.7 0-51.3-35.7-89.7-99-89.7zm-19.8 175.8c-28.8 0-43.8-21.3-43.8-51.6 0-38.7 20.1-84.6 61.8-84.6 28.8 0 43.8 21.3 43.8 51.6 0 38.7-20.1 84.6-61.8 84.6z" style="fill-rule:nonzero"/><path d="M912.139 74.415c18.404 11.376 34.809 25.058 48.333 41.476l.024.023.024.048c7.18 9.116 13.067 18.927 17.433 29.224v.023c29.825 72.09-17.108 147.22-73.175 199.808v.023C787.709 452.334 621.549 515.532 453.004 542.761h-.025l-.025.024c-21.463 3.083-43.35 5.679-65.46 7.558a18.797 18.797 0 0 0 .5-5.6c21.526-1.852 42.881-4.391 63.855-7.403 167.444-27.064 332.247-89.848 448.075-195.99 55.212-51.785 100.519-125.057 71.864-194.32-4.176-9.846-9.813-19.258-16.694-28.001-12.467-15.134-27.525-27.896-44.441-38.638l1.486-5.976zM8.53 344.69a93.196 93.196 0 0 0 4.039 9.783 178.368 178.368 0 0 0-1.771 7.899l-.023.023c-12.453 57.937 28.241 116.487 89.143 144.083h.024l.023.023c22.684 10.659 46.433 18.939 70.913 25.205l-.201 5.714c-25.474-6.424-50.238-14.996-73.909-26.119C33.573 482.635-8.665 422.013 4.363 361.399A187.068 187.068 0 0 1 8.53 344.69zm143.885-168.281c11.806-8.046 23.822-15.719 35.859-23.033l.047-.047a939.649 939.649 0 0 1 57.286-30.592l2.076 5.387a932.767 932.767 0 0 0-55.631 29.76c-10.485 6.372-20.937 13.011-31.23 19.924a131.772 131.772 0 0 0-8.407-1.399zM700.44 27.689c-85.689-2.257-171.456 7.731-253.719 28.02a18.266 18.266 0 0 0-2.336-5.188c83.146-20.546 169.886-30.651 256.59-28.332l-.006.025a18.74 18.74 0 0 0-.529 5.475z" style="fill-rule:nonzero"/><path d="M718.021 19.988c-2.722.389-4.919 2.384-5.588 5.077-.67 2.695.316 5.569 2.507 7.315 1.781 1.419 44.182 34.906 91.363 47.943a252.457 252.457 0 0 0 35.663 7.108l5.058 10.648-21.913 8.231c-2.34.879-3.995 2.988-4.32 5.505a7.193 7.193 0 0 0 2.754 6.602c.698.537 17.482 13.158 49.534 14.018 31.016.834 43.884-5.345 45.249-6.053 2.6-1.347 4.033-4.236 3.567-7.194l-2.174-13.805c-.443-2.822-2.527-5.128-5.268-5.831l-20.714-5.313-3.051-5.661c.87-.091 1.351-.155 1.41-.162 2.748-.365 4.976-2.369 5.652-5.086l3.283-13.205c.675-2.715-.333-5.615-2.558-7.354a57.45 57.45 0 0 0-1.154-.87l5.295-3.355 20.523 6.081c2.715.805 5.603-.127 7.304-2.357l8.318-10.906c1.712-2.245 1.868-5.341.423-7.814a6.101 6.101 0 0 0-.183-.298c-.86-1.322-9.197-13.361-36.612-28.675-28.331-15.825-48.83-13.506-49.689-13.4a6.718 6.718 0 0 0-5.472 4.329c-.889 2.361-.431 5.052 1.203 7.031l15.264 18.503-9.363 6.665c-11.261-4.936-22.81-9.05-34.385-12.249-47.18-13.038-99.712-5.783-101.926-5.468zm62.871 16.422c4.852-2.835 11.166-1.09 14.076 3.89 2.909 4.979 1.328 11.337-3.525 14.172-4.852 2.834-11.166 1.09-14.075-3.89-2.91-4.979-1.329-11.337 3.524-14.172z" style="fill:#cc333f;fill-rule:nonzero"/><path d="M371.796 552.25c2.582-.944 4.318-3.351 4.416-6.125.097-2.775-1.463-5.382-3.968-6.637-2.037-1.019-50.454-24.996-99.313-27.978a252.366 252.366 0 0 0-36.362.434l-7.153-9.37 19.732-12.591c2.107-1.345 3.289-3.751 3.086-6.281a7.192 7.192 0 0 0-4.062-5.888c-.794-.381-19.828-9.252-51.363-3.454-30.516 5.61-41.825 14.32-43.014 15.295-2.264 1.857-3.068 4.98-1.999 7.777l4.986 13.055c1.018 2.669 3.535 4.494 6.361 4.613l21.366.908 4.158 4.906c-.833.269-1.291.431-1.346.45-2.614.927-4.378 3.348-4.476 6.147l-.477 13.598c-.098 2.797 1.489 5.424 4.026 6.665.053.026.499.243 1.309.612l-4.485 4.379-21.337-1.698c-2.824-.224-5.456 1.285-6.658 3.819l-5.879 12.392c-1.21 2.552-.721 5.613 1.205 7.733.078.086.159.171.241.253 1.115 1.116 11.765 11.167 41.758 20.469 30.994 9.614 50.568 3.099 51.386 2.817a6.718 6.718 0 0 0 4.458-5.368c.38-2.494-.626-5.032-2.634-6.629l-18.765-14.941 7.779-8.459c12.039 2.496 24.189 4.129 36.176 4.86 48.858 2.983 98.748-14.996 100.848-15.763zm-64.909-3.043c-4.159 3.778-10.698 3.379-14.576-.89-3.877-4.268-3.648-10.816.512-14.594 4.16-3.778 10.699-3.379 14.576.89 3.878 4.268 3.648 10.816-.512 14.594z" style="fill:#ebb647;fill-rule:nonzero"/><path d="M433.788 65.258c1.954-1.831 2.591-4.65 1.619-7.173-.972-2.523-3.366-4.264-6.09-4.432-2.214-.135-54.749-3.135-99.665 12.846a245.874 245.874 0 0 0-32.415 14.271l-9.986-5.664 12.873-18.816c1.375-2.009 1.516-4.616.368-6.805a7.008 7.008 0 0 0-5.888-3.726c-.857-.037-21.298-.719-47.34 16.515-25.201 16.676-32.008 28.798-32.701 30.126-1.321 2.528-.848 5.633 1.177 7.731l9.452 9.794c1.931 2.002 4.883 2.677 7.461 1.705l19.49-7.343 5.598 2.808c-.643.558-.991.879-1.034.917-1.988 1.828-2.644 4.671-1.663 7.216l4.764 12.366c.979 2.544 3.404 4.292 6.151 4.435.058.003.54.027 1.407.049l-2.346 5.636-19.767 6.624c-2.616.877-4.398 3.234-4.507 5.963l-.537 13.348c-.11 2.748 1.496 5.304 4.032 6.469.103.047.207.092.312.135 1.425.573 14.805 5.513 45.23 2.398 31.441-3.219 46.492-16.529 47.117-17.094a6.544 6.544 0 0 0 1.945-6.511c-.612-2.38-2.481-4.27-4.89-4.935l-22.518-6.222 3.74-10.55c11.74-2.36 23.251-5.535 34.27-9.456 44.915-15.98 82.752-51.135 84.341-52.625zm-59.319 22.054c-2.285 4.974-8.296 7.113-13.4 4.768-5.104-2.345-7.398-8.299-5.113-13.272 2.285-4.974 8.296-7.113 13.4-4.768 5.104 2.345 7.397 8.299 5.113 13.272z" style="fill:#00a0b0;fill-rule:nonzero"/></svg>