<?xml version="1.0" standalone="no"?>
<!DOCTYPE svg PUBLIC "-//W3C//DTD SVG 20010904//EN"
 "http://www.w3.org/TR/2001/REC-SVG-20010904/DTD/svg10.dtd">
<svg version="1.0" xmlns="http://www.w3.org/2000/svg"
 width="700.000000pt" height="700.000000pt" viewBox="0 0 700.000000 700.000000"
 preserveAspectRatio="xMidYMid meet">
<metadata>
Created by potrace 1.14, written by Peter Selinger 2001-2017
</metadata>
<g transform="translate(0.000000,700.000000) scale(0.100000,-0.100000)"
fill="#000000" stroke="none">
<path d="M6610 6915 c-65 -17 -221 -85 -485 -211 -44 -21 -82 -38 -85 -39 -3
0 -25 -11 -50 -24 -25 -13 -115 -60 -200 -104 -164 -84 -192 -99 -390 -210
-184 -103 -366 -211 -495 -295 -269 -174 -597 -399 -615 -422 -3 -4 -12 -11
-21 -16 -9 -5 -33 -22 -54 -39 -21 -16 -66 -52 -99 -78 -86 -67 -83 -65 -171
-137 -44 -35 -82 -67 -85 -71 -3 -3 -39 -35 -80 -70 -184 -158 -460 -435 -680
-684 -97 -110 -245 -284 -272 -320 -4 -5 -20 -26 -36 -45 -16 -19 -60 -76 -98
-126 -65 -85 -71 -90 -104 -88 -19 1 -84 5 -145 9 -60 4 -122 8 -138 9 -39 3
-48 16 -38 56 5 19 12 62 16 95 4 32 8 62 10 65 2 3 6 29 10 59 4 30 9 63 11
75 2 12 6 32 8 46 3 14 8 48 11 75 3 28 8 57 10 65 6 20 10 45 30 190 17 116
17 129 2 181 -20 67 -57 117 -117 157 -53 35 -143 56 -197 46 -226 -40 -749
-453 -1048 -829 -22 -27 -42 -52 -45 -55 -3 -3 -18 -23 -35 -45 -16 -22 -35
-46 -42 -53 -7 -7 -13 -17 -13 -21 0 -4 -8 -16 -18 -27 -47 -52 -235 -355
-347 -559 -67 -121 -191 -376 -235 -480 -23 -55 -46 -109 -51 -120 -42 -91
-139 -413 -155 -515 -3 -19 -9 -53 -13 -75 -25 -138 23 -258 130 -322 37 -22
46 -25 344 -137 220 -81 264 -90 344 -70 68 18 100 40 184 128 38 39 159 164
269 278 l201 208 79 0 79 0 -6 -38 c-13 -69 -13 -77 1 -131 16 -60 41 -100 93
-150 164 -157 331 -313 357 -334 63 -52 164 -73 256 -53 l36 8 4 -76 3 -76
-194 -188 c-425 -410 -419 -403 -426 -511 -4 -57 15 -126 62 -231 11 -25 51
-117 88 -205 81 -190 94 -211 157 -258 119 -87 298 -68 716 77 56 20 110 40
120 45 9 5 62 28 117 51 362 153 821 414 1125 639 171 126 283 224 449 391
226 228 425 501 509 697 61 142 -3 302 -145 365 -49 21 -136 30 -191 18 -20
-5 -53 -11 -72 -14 -28 -4 -163 -27 -295 -51 -11 -1 -31 -6 -45 -9 -14 -3 -41
-8 -60 -10 -19 -3 -60 -10 -90 -16 -30 -6 -71 -13 -90 -16 -46 -7 -80 -13
-107 -18 -17 -4 -23 0 -24 12 0 9 -2 24 -4 32 -2 14 -6 55 -21 218 -3 37 -8
70 -10 73 -2 4 45 44 104 90 102 79 299 239 352 286 14 12 36 31 50 43 254
218 575 535 755 745 33 38 67 76 75 85 8 9 24 28 35 41 11 13 40 49 65 79 25
30 49 60 55 66 11 13 178 233 252 334 118 160 324 475 483 740 285 473 719
1359 732 1495 19 191 -167 349 -352 300z m-1547 -1729 c206 -91 261 -353 109
-515 -128 -136 -339 -144 -479 -18 -105 95 -134 259 -69 386 24 46 96 115 146
141 87 44 202 47 293 6z"/>
</g>
</svg>
