<?xml version="1.0" encoding="UTF-8" standalone="no"?>
<svg
   xmlns:dc="http://purl.org/dc/elements/1.1/"
   xmlns:cc="http://creativecommons.org/ns#"
   xmlns:rdf="http://www.w3.org/1999/02/22-rdf-syntax-ns#"
   xmlns:svg="http://www.w3.org/2000/svg"
   xmlns="http://www.w3.org/2000/svg"
   xmlns:sodipodi="http://sodipodi.sourceforge.net/DTD/sodipodi-0.dtd"
   xmlns:inkscape="http://www.inkscape.org/namespaces/inkscape"
   viewBox="0 0 511.99998 511.99998"
   xml:space="preserve"
   style="clip-rule:evenodd;fill-rule:evenodd;stroke-linejoin:round;stroke-miterlimit:2"
   version="1.1"
   id="svg44"
   sodipodi:docname="favicon.svg"
   inkscape:version="1.0.1 (3bc2e813f5, 2020-09-07)"
   width="512"
   height="512"><metadata
     id="metadata50"><rdf:RDF><cc:Work
         rdf:about=""><dc:format>image/svg+xml</dc:format><dc:type
           rdf:resource="http://purl.org/dc/dcmitype/StillImage" /><dc:title></dc:title></cc:Work></rdf:RDF></metadata><defs
     id="defs48" /><sodipodi:namedview
     pagecolor="#000000"
     bordercolor="#666666"
     borderopacity="1"
     objecttolerance="10"
     gridtolerance="10"
     guidetolerance="10"
     inkscape:pageopacity="0"
     inkscape:pageshadow="2"
     inkscape:window-width="2560"
     inkscape:window-height="1377"
     id="namedview46"
     showgrid="false"
     inkscape:zoom="1.1905714"
     inkscape:cx="267.39695"
     inkscape:cy="233.80537"
     inkscape:window-x="1912"
     inkscape:window-y="-8"
     inkscape:window-maximized="1"
     inkscape:current-layer="svg44"
     units="px"
     width="512mm" /><path
     d="m 505.59481,32.37288 c 2.61603,-6.680291 0.91075,-14.233189 -4.3436,-19.2141 C 495.9936,8.1730156 488.20071,6.7170667 481.41982,9.4471167 475.9085,11.666641 345.36886,64.888036 255.1155,155.25166 a 658.69853,658.69853 0 0 0 -61.98483,71.83428 l -30.67825,-2.20439 9.4818,-60.33422 c 1.01242,-6.44288 -1.64842,-12.91176 -6.94542,-16.88535 a 18.767625,18.767625 0 0 0 -18.53003,-2.23425 c -2.11657,0.89444 -52.348741,22.77722 -95.505553,94.44491 -41.7659693,69.34887 -44.2790652,106.5087 -44.4263226,110.51803 -0.2840828,7.63487 4.4331336,14.6024 11.7482646,17.34699 l 34.138645,12.81089 c 6.976769,2.62199 14.891545,0.85479 20.011365,-4.46486 l 38.691741,-40.20051 16.77534,0.35024 c -0.91181,2.09229 -1.38484,3.26666 -1.44479,3.40962 -2.70393,6.70848 -1.0181,14.34334 4.28173,19.37099 l 25.76121,24.42953 c 5.29659,5.02284 13.17676,6.46227 19.98546,3.64601 a 149.89575,149.89575 0 0 0 3.45884,-1.5017 l 0.81049,16.33515 -40.18996,38.77955 c -5.31794,5.12948 -6.91453,12.88473 -4.03801,19.61359 l 14.06867,32.90593 c 2.89635,6.77307 9.72519,11.10731 17.19768,11.00562 a 15.918433,15.918433 0 0 0 0.91186,-0.0325 c 4.10715,-0.25311 42.15895,-3.70542 112.17213,-46.26365 72.35095,-43.98109 93.43807,-93.5047 94.30168,-95.59133 a 17.528279,17.528279 0 0 0 -2.79439,-17.98915 c -4.21776,-5.0536 -10.91638,-7.47313 -17.51022,-6.30725 l -61.6331,10.87012 -3.09619,-29.82659 C 315.81889,299.865 340.00635,278.93202 362.14975,256.76374 452.404,166.40382 503.46382,37.804665 505.59481,32.37288 Z M 387.48574,154.00866 c 0.19937,14.66085 -11.87955,26.75336 -26.92743,26.95843 -15.04433,0.20411 -27.44756,-11.55899 -27.64563,-26.22213 -0.19706,-14.65954 11.87955,-26.75334 26.92616,-26.95615 15.04561,-0.20637 27.44886,11.55674 27.6469,26.21985 z"
     style="fill:#cc333f;fill-rule:nonzero;stroke:#ffffff;stroke-width:5.21831px"
     id="path38" /></svg>
