<svg viewBox="0 0 1285 602" xmlns="http://www.w3.org/2000/svg" xml:space="preserve" style="fill-rule:evenodd;clip-rule:evenodd;stroke-linejoin:round;stroke-miterlimit:2"><path d="M1282.89 349.358h-104.7l28.5-161.4h-54l-36.6 207h158.7l8.1-45.6z" style="fill-rule:nonzero"/><path d="M1284.86 349.708a2 2 0 0 0-1.969-2.35h-102.316l28.085-159.052a2 2 0 0 0-1.969-2.348h-54c-.97 0-1.801.697-1.97 1.652l-36.6 207a2.002 2.002 0 0 0 1.97 2.348h158.7a2 2 0 0 0 1.969-1.65l8.1-45.6zm-1.969-.35h-104.7l28.5-161.4h-54l-36.6 207h158.7l8.1-45.6z" style="fill:#fff"/><path d="M996.05 187.958c1.561 60.474-38.332 119.687-85.144 163.593 0 0-4.135 3.788-6.18 5.61l-19.94 37.797h57.3l26.4-53.7h65.1l7.8 53.7h58.8l-36.3-207H996.05zm31.536 111.3h-38.7l30-61.2 8.7 61.2z"/><path d="M996.05 185.958a1.998 1.998 0 0 0-1.999 2.052c1.547 59.935-38.111 118.558-84.505 162.075-.211.193-4.167 3.816-6.151 5.583a2.002 2.002 0 0 0-.438.56l-19.94 37.797a2 2 0 0 0 1.769 2.933h57.3c.762 0 1.458-.433 1.795-1.117l25.85-52.583h62.124l7.552 51.988a1.999 1.999 0 0 0 1.979 1.712h58.8a2 2 0 0 0 1.97-2.345l-36.3-207a2 2 0 0 0-1.97-1.655H996.05zm0 2c1.561 60.474-38.332 119.687-85.144 163.593 0 0-4.135 3.788-6.18 5.61l-19.94 37.797h57.3l26.4-53.7h65.1l7.8 53.7h58.8l-36.3-207H996.05zm31.536 111.3h-38.7l30-61.2 8.7 61.2zm-2.305-2h-33.187l25.727-52.483 7.46 52.483z" style="fill:#fff"/><path d="M816.168 394.958h-29.782l29.1-165h-67.5l7.8-42h188.4l-7.8 42h-66.9l-25.719 145.829a652.59 652.59 0 0 1-27.599 19.171z" style="fill-rule:nonzero"/><path d="M816.168 396.958a2 2 0 0 0 1.099-.329A654.054 654.054 0 0 0 844.95 377.4a2 2 0 0 0 .786-1.265l25.428-144.177h65.222a2 2 0 0 0 1.966-1.634l7.8-42a1.998 1.998 0 0 0-1.966-2.366h-188.4c-.964 0-1.791.688-1.967 1.635l-7.8 42a2.002 2.002 0 0 0 1.967 2.365h65.116l-28.686 162.653a2.003 2.003 0 0 0 1.97 2.347h29.782zm0-2h-29.782l29.1-165h-67.5l7.8-42h188.4l-7.8 42h-66.9l-25.719 145.829a652.59 652.59 0 0 1-27.599 19.171z" style="fill:#fff"/><path d="m697.586 394.958 36.6-207h-54l-36.6 207h54z" style="fill-rule:nonzero"/><path d="M697.586 396.958a2 2 0 0 0 1.969-1.651l36.6-207a2 2 0 0 0-1.969-2.349h-54c-.97 0-1.801.697-1.97 1.652l-36.6 207a2.002 2.002 0 0 0 1.97 2.348h54zm0-2 36.6-207h-54l-36.6 207h54z" style="fill:#fff"/><path d="M594.713 283.375c26.1-8.1 39-25.8 39-48.9 0-22.8-15.3-41.4-44.7-45-10.5-1.2-15.3-1.2-26.4-1.2h-84.9l-36.6 207h82.5c13.2 0 20.1 0 30.9-1.2 31.5-3.6 71.4-23.7 71.4-65.4 0-21.9-9.9-38.1-31.2-45.3zm-70.5-53.1h24.3c4.8 0 9.6.3 13.5.9 8.4 1.2 13.5 6 13.5 15 0 14.7-8.4 21-20.4 22.8-4.2.6-8.7.9-13.5.9h-24.3l6.9-39.6zm21 122.7c-4.2.3-8.7.3-13.5.3h-29.1l7.8-44.4h27.6c4.8 0 9.6 0 13.5.3 9.6.9 17.4 6.9 17.4 18.3 0 15.6-12.9 24.9-23.7 25.5z" style="fill-rule:nonzero"/><path d="M600.509 283.484c23.592-9.072 35.204-26.622 35.204-49.009 0-23.751-15.83-43.235-46.457-46.985l-.016-.002c-10.59-1.21-15.432-1.213-26.627-1.213h-84.9c-.97 0-1.801.697-1.97 1.652l-36.6 207a2.002 2.002 0 0 0 1.97 2.348h82.5c13.294 0 20.243-.003 31.121-1.212l.006-.001c32.362-3.698 73.173-24.545 73.173-67.387 0-20.981-8.749-36.922-27.403-45.191h-.001zm-5.796-.109c26.1-8.1 39-25.8 39-48.9 0-22.8-15.3-41.4-44.7-45-10.5-1.2-15.3-1.2-26.4-1.2h-84.9l-36.6 207h82.5c13.2 0 20.1 0 30.9-1.2 31.5-3.6 71.4-23.7 71.4-65.4 0-21.9-9.9-38.1-31.2-45.3zm-49.5 69.6c-4.2.3-8.7.3-13.5.3h-29.1l7.8-44.4h27.6c4.8 0 9.6 0 13.5.3 9.6.9 17.4 6.9 17.4 18.3 0 15.6-12.9 24.9-23.7 25.5zm-.111-1.997-.032.002c-4.155.297-8.608.295-13.357.295h-26.718l7.097-40.4h25.921c4.738 0 9.477-.002 13.329.293 8.569.809 15.571 6.129 15.571 16.307 0 14.369-11.864 22.951-21.811 23.503zm-20.889-120.703h24.3c4.8 0 9.6.3 13.5.9 8.4 1.2 13.5 6 13.5 15 0 14.7-8.4 21-20.4 22.8-4.2.6-8.7.9-13.5.9h-24.3l6.9-39.6zm1.682 2h22.618c4.692 0 9.384.291 13.196.877l.021.003c3.691.527 6.682 1.79 8.725 3.965 2.015 2.145 3.058 5.156 3.058 9.055 0 6.702-1.839 11.514-5.122 14.831-3.317 3.351-8.041 5.16-13.568 5.99-4.11.587-8.513.879-13.21.879h-21.922l6.204-35.6z" style="fill:#fff"/><path d="M439.613 235.075c0-29.4-21.6-42.3-47.7-45.3-10.8-1.2-19.2-1.5-32.1-1.5h-82.2l-36.6 207h54l13.8-78.6h12.3c6 0 10.8 0 16.8.3 12.6.9 19.2 12.6 19.2 32.4 0 23.7.6 34.8 2.1 45.9h58.8c-4.5-9.9-6.9-22.8-6.9-39.9 0-32.7-6-50.4-24.6-58.5 34.8-9 53.1-30.3 53.1-61.8zm-123.9 42.6 8.4-47.4h21c5.7 0 10.5 0 14.4.3 12 .9 21.3 5.1 21.3 18.6 0 21-15 27-30.9 28.2-3.9.3-8.7.3-14.4.3h-19.8z" style="fill-rule:nonzero"/><path d="M441.613 235.075c0-30.585-22.319-44.166-49.472-47.287h-.007c-10.875-1.209-19.332-1.513-32.321-1.513h-82.2c-.97 0-1.801.697-1.97 1.652l-36.6 207a2.002 2.002 0 0 0 1.97 2.348h54a2 2 0 0 0 1.97-1.654l13.509-76.946h10.621c5.957 0 10.724 0 16.678.297 11.696.848 17.322 12.012 17.322 30.403 0 23.839.609 35.003 2.118 46.168a2 2 0 0 0 1.982 1.732h58.8a1.998 1.998 0 0 0 1.821-2.827c-4.406-9.693-6.721-22.33-6.721-39.073 0-30.915-5.492-48.734-21.134-57.962 32.609-9.975 49.634-31.425 49.634-62.338zm-2 0c0-29.4-21.6-42.3-47.7-45.3-10.8-1.2-19.2-1.5-32.1-1.5h-82.2l-36.6 207h54l13.8-78.6h12.3c6 0 10.8 0 16.8.3 12.6.9 19.2 12.6 19.2 32.4 0 23.7.6 34.8 2.1 45.9h58.8c-4.5-9.9-6.9-22.8-6.9-39.9 0-32.7-6-50.4-24.6-58.5 34.8-9 53.1-30.3 53.1-61.8zm-123.9 42.6 8.4-47.4h21c5.7 0 10.5 0 14.4.3 12 .9 21.3 5.1 21.3 18.6 0 21-15 27-30.9 28.2-3.9.3-8.7.3-14.4.3h-19.8zm2.385-2 7.692-43.4h19.323c5.639 0 10.388-.002 14.246.294a.008.008 0 0 0 .004.001c6.625.497 12.404 1.955 15.929 5.831 2.265 2.491 3.521 5.983 3.521 10.774 0 7.782-2.161 13.362-5.772 17.302-5.522 6.024-14.269 8.224-23.279 8.904h-.003c-3.858.297-8.607.294-14.246.294h-17.415z" style="fill:#fff"/><g><path d="M132.413 184.075c-67.2 0-120.6 47.7-120.6 125.7 0 51.3 35.7 89.7 99 89.7 67.2 0 120.6-47.7 120.6-125.7 0-51.3-35.7-89.7-99-89.7zm-19.8 175.8c-28.8 0-43.8-21.3-43.8-51.6 0-38.7 20.1-84.6 61.8-84.6 28.8 0 43.8 21.3 43.8 51.6 0 38.7-20.1 84.6-61.8 84.6z" style="fill-rule:nonzero"/><path d="M132.413 182.075c-68.291 0-122.6 48.434-122.6 127.7 0 26.236 9.162 49.159 26.384 65.537 17.159 16.319 42.361 26.163 74.616 26.163 68.291 0 122.6-48.433 122.6-127.7 0-26.235-9.163-49.158-26.384-65.536-17.16-16.319-42.361-26.164-74.616-26.164zm0 2c-67.2 0-120.6 47.7-120.6 125.7 0 51.3 35.7 89.7 99 89.7 67.2 0 120.6-47.7 120.6-125.7 0-51.3-35.7-89.7-99-89.7zm-19.8 175.8c-28.8 0-43.8-21.3-43.8-51.6 0-38.7 20.1-84.6 61.8-84.6 28.8 0 43.8 21.3 43.8 51.6 0 38.7-20.1 84.6-61.8 84.6zm0-2c-10.977 0-19.861-3.21-26.557-8.954-10.151-8.709-15.243-23.138-15.243-40.646 0-18.986 4.911-39.743 14.956-55.749 9.872-15.73 24.738-26.851 44.844-26.851 10.976 0 19.861 3.211 26.557 8.955 10.151 8.709 15.243 23.137 15.243 40.645 0 18.986-4.912 39.744-14.957 55.75-9.872 15.73-24.737 26.85-44.843 26.85z" style="fill:#fff"/></g><g><path d="M912.139 74.415c18.404 11.376 34.809 25.058 48.333 41.476l.024.023.024.048c7.18 9.116 13.067 18.927 17.433 29.224v.023c29.825 72.09-17.108 147.22-73.175 199.808v.023C787.709 452.334 621.549 515.532 453.004 542.761h-.025l-.025.024c-21.463 3.083-43.35 5.679-65.46 7.558a18.797 18.797 0 0 0 .5-5.6c21.526-1.852 42.881-4.391 63.855-7.403 167.444-27.064 332.247-89.848 448.075-195.99 55.212-51.785 100.519-125.057 71.864-194.32-4.176-9.846-9.813-19.258-16.694-28.001-12.467-15.134-27.525-27.896-44.441-38.638l1.486-5.976zM8.53 344.69a93.196 93.196 0 0 0 4.039 9.783 178.368 178.368 0 0 0-1.771 7.899l-.023.023c-12.453 57.937 28.241 116.487 89.143 144.083h.024l.023.023c22.684 10.659 46.433 18.939 70.913 25.205l-.201 5.714c-25.474-6.424-50.238-14.996-73.909-26.119C33.573 482.635-8.665 422.013 4.363 361.399A187.068 187.068 0 0 1 8.53 344.69zm143.885-168.281c11.806-8.046 23.822-15.719 35.859-23.033l.047-.047a939.649 939.649 0 0 1 57.286-30.592l2.076 5.387a932.767 932.767 0 0 0-55.631 29.76c-10.485 6.372-20.937 13.011-31.23 19.924a131.772 131.772 0 0 0-8.407-1.399zM700.44 27.689c-85.689-2.257-171.456 7.731-253.719 28.02a18.266 18.266 0 0 0-2.336-5.188c83.146-20.546 169.886-30.651 256.59-28.332l-.006.025a18.74 18.74 0 0 0-.529 5.475z" style="fill-rule:nonzero"/><path d="m453.019 544.758.304-.022c168.937-27.293 335.465-90.678 452.806-198.221l-1.351.525.059-.046 1.309-.518c56.621-53.108 103.73-129.072 73.717-201.881a1.647 1.647 0 0 0-.069-.189c-4.414-10.41-10.356-20.331-17.602-29.553a.872.872 0 0 0-.184-.217l.008-.016c-13.663-16.587-30.233-30.413-48.826-41.906a1.997 1.997 0 0 0-2.992 1.219l-1.486 5.976a2 2 0 0 0 .869 2.171c16.725 10.621 31.618 23.234 43.948 38.195 6.768 8.602 12.309 17.852 16.414 27.528 28.335 68.505-16.773 140.861-71.379 192.081-115.552 105.885-279.975 168.478-447.017 195.479-20.931 3.006-42.243 5.539-63.725 7.388a1.999 1.999 0 0 0-1.824 2.113c.032.53.04 1.065.02 1.603v.004a16.8 16.8 0 0 1-.467 3.399 1.998 1.998 0 0 0 2.112 2.466c22.149-1.882 44.075-4.483 65.575-7.571l-.284.02.065-.027zm459.12-470.343-1.486 5.976c16.916 10.742 31.974 23.504 44.441 38.638 6.881 8.743 12.518 18.155 16.694 28.001 28.655 69.263-16.652 142.535-71.864 194.32-115.828 106.142-280.631 168.926-448.075 195.99-20.974 3.012-42.329 5.551-63.855 7.403a18.797 18.797 0 0 1-.5 5.6c22.11-1.879 43.997-4.475 65.46-7.558l.025-.024h.025c167.854-27.117 333.342-89.909 450.319-196.392.114.11.238.202.364.278.468.283.963.355 1.07.368a36.658 36.658 0 0 0-.929-1.107l.95-.868v-.023c55.585-52.135 102.192-126.427 73.924-197.954a2.002 2.002 0 0 0 1.25-1.811 1.999 1.999 0 0 1-1.258 1.792c-.24-.609-.488-1.222-.741-1.835v-.023c-4.115-9.705-9.581-18.978-16.208-27.644a1.994 1.994 0 0 0 .547-2.504c.117.308-.465 1.204-.994 1.923-.257-.334-.517-.667-.778-.999l-.024-.048-.024-.023c-13.524-16.418-29.929-30.1-48.333-41.476zM101.005 504.794a.524.524 0 0 0-.277-.067l.015-.07C40.818 477.503.566 420.047 12.683 363.041c.031-.089.057-.181.076-.275a175.814 175.814 0 0 1 1.751-7.811c.112-.452.063-.93-.139-1.35a90.84 90.84 0 0 1-3.952-9.573 2 2 0 0 0-3.806.086 188.96 188.96 0 0 0-4.208 16.874c-13.203 61.467 29.443 123.052 93.524 152.125 23.784 11.175 48.664 19.788 74.259 26.243a2.002 2.002 0 0 0 2.488-1.869l.201-5.714a2 2 0 0 0-1.503-2.008c-24.358-6.235-47.988-14.472-70.559-25.078.066.031.13.065.19.103zM8.53 344.69a187.068 187.068 0 0 0-4.167 16.709c-13.028 60.614 29.21 121.236 92.405 149.902 23.671 11.123 48.435 19.695 73.909 26.119l.201-5.714c-23.829-6.099-46.965-14.107-69.1-24.359a2 2 0 0 0-.419-2.279c.21.219-.123 1.053-.517 1.844l-.877-.411-.023-.023h-.024C39.704 479.194-.756 421.652 10.374 364.354c.131.028.265.041.401.041l-.006-.023a1.94 1.94 0 0 1-.389-.045l.039-.198c.161.112.287.189.345.223-.028-.113-.11-.433-.223-.836.077-.379.154-.75.234-1.121l.023-.023a178.368 178.368 0 0 1 1.771-7.899 93.196 93.196 0 0 1-4.039-9.783zm3.657 19.121a1.994 1.994 0 0 1-1.356.561l-.056.023c.545 0 1.047-.22 1.412-.584zm.024-.023-.002.001.002-.001zm892.035-18.115.522 1.343.01.001-.532-1.344zM187.863 153.627l-.545-2.028a941.397 941.397 0 0 1 57.408-30.657 1.998 1.998 0 0 1 2.747 1.076l2.076 5.387a2 2 0 0 1-.983 2.514 930.788 930.788 0 0 0-55.493 29.685c-10.454 6.353-20.874 12.972-31.136 19.865a2 2 0 0 1-1.508.3 130.238 130.238 0 0 0-8.279-1.377 2 2 0 0 1-.861-3.635c11.834-8.066 23.88-15.758 35.946-23.09l.561 2.001c-11.879 7.226-23.732 14.802-35.381 22.741 2.869.384 5.672.851 8.407 1.399 10.293-6.913 20.745-13.552 31.23-19.924a932.767 932.767 0 0 1 55.631-29.76l-2.076-5.387a939.649 939.649 0 0 0-57.286 30.592l-.047.047-.411.251zm792.089-8.434v.027-.027zM702.909 22.697l.01-.04a2 2 0 0 0-1.891-2.467c-86.884-2.324-173.804 7.801-257.123 28.39a2 2 0 0 0-1.193 3.037 16.193 16.193 0 0 1 2.079 4.618 2 2 0 0 0 2.409 1.416c82.09-20.246 167.678-30.215 253.187-27.962a2.002 2.002 0 0 0 2.05-2.101c-.082-1.625.07-3.271.473-4.891h-.001zm-3.313-.543 1.379.035-.006.025c-.124.5-.227 1.001-.308 1.504l.155.249c.044.07.208.234.127.214l-.296-.379a18.732 18.732 0 0 0-.207 3.887c-85.689-2.257-171.456 7.731-253.719 28.02a18.266 18.266 0 0 0-2.336-5.188c82.63-20.418 168.81-30.525 254.968-28.373l-.325-.416.002-.009c.041-.172.275.054.566.431zm1.406 2.035-.033.025.033-.025zm-.033.025-.016-.025h-.004l.02.025z" style="fill:#fff"/></g><path d="M718.021 19.988c-2.722.389-4.919 2.384-5.588 5.077-.67 2.695.316 5.569 2.507 7.315 1.781 1.419 44.182 34.906 91.363 47.943a252.457 252.457 0 0 0 35.663 7.108l5.058 10.648-21.913 8.231c-2.34.879-3.995 2.988-4.32 5.505a7.193 7.193 0 0 0 2.754 6.602c.698.537 17.482 13.158 49.534 14.018 31.016.834 43.884-5.345 45.249-6.053 2.6-1.347 4.033-4.236 3.567-7.194l-2.174-13.805c-.443-2.822-2.527-5.128-5.268-5.831l-20.714-5.313-3.051-5.661c.87-.091 1.351-.155 1.41-.162 2.748-.365 4.976-2.369 5.652-5.086l3.283-13.205c.675-2.715-.333-5.615-2.558-7.354a57.45 57.45 0 0 0-1.154-.87l5.295-3.355 20.523 6.081c2.715.805 5.603-.127 7.304-2.357l8.318-10.906c1.712-2.245 1.868-5.341.423-7.814a6.101 6.101 0 0 0-.183-.298c-.86-1.322-9.197-13.361-36.612-28.675-28.331-15.825-48.83-13.506-49.689-13.4a6.718 6.718 0 0 0-5.472 4.329c-.889 2.361-.431 5.052 1.203 7.031l15.264 18.503-9.363 6.665c-11.261-4.936-22.81-9.05-34.385-12.249-47.18-13.038-99.712-5.783-101.926-5.468zm62.871 16.422c4.852-2.835 11.166-1.09 14.076 3.89 2.909 4.979 1.328 11.337-3.525 14.172-4.852 2.834-11.166 1.09-14.075-3.89-2.91-4.979-1.329-11.337 3.524-14.172z" style="fill:#cc333f;fill-rule:nonzero;stroke:#fff;stroke-width:2px"/><path d="M371.796 552.25c2.582-.944 4.318-3.351 4.416-6.125.097-2.775-1.463-5.382-3.968-6.637-2.037-1.019-50.454-24.996-99.313-27.978a252.366 252.366 0 0 0-36.362.434l-7.153-9.37 19.732-12.591c2.107-1.345 3.289-3.751 3.086-6.281a7.192 7.192 0 0 0-4.062-5.888c-.794-.381-19.828-9.252-51.363-3.454-30.516 5.61-41.825 14.32-43.014 15.295-2.264 1.857-3.068 4.98-1.999 7.777l4.986 13.055c1.018 2.669 3.535 4.494 6.361 4.613l21.366.908 4.158 4.906c-.833.269-1.291.431-1.346.45-2.614.927-4.378 3.348-4.476 6.147l-.477 13.598c-.098 2.797 1.489 5.424 4.026 6.665.053.026.499.243 1.309.612l-4.485 4.379-21.337-1.698c-2.824-.224-5.456 1.285-6.658 3.819l-5.879 12.392c-1.21 2.552-.721 5.613 1.205 7.733.078.086.159.171.241.253 1.115 1.116 11.765 11.167 41.758 20.469 30.994 9.614 50.568 3.099 51.386 2.817a6.718 6.718 0 0 0 4.458-5.368c.38-2.494-.626-5.032-2.634-6.629l-18.765-14.941 7.779-8.459c12.039 2.496 24.189 4.129 36.176 4.86 48.858 2.983 98.748-14.996 100.848-15.763zm-64.909-3.043c-4.159 3.778-10.698 3.379-14.576-.89-3.877-4.268-3.648-10.816.512-14.594 4.16-3.778 10.699-3.379 14.576.89 3.878 4.268 3.648 10.816-.512 14.594z" style="fill:#ebb647;fill-rule:nonzero;stroke:#fff;stroke-width:2px"/><path d="M433.788 65.258c1.954-1.831 2.591-4.65 1.619-7.173-.972-2.523-3.366-4.264-6.09-4.432-2.214-.135-54.749-3.135-99.665 12.846a245.874 245.874 0 0 0-32.415 14.271l-9.986-5.664 12.873-18.816c1.375-2.009 1.516-4.616.368-6.805a7.008 7.008 0 0 0-5.888-3.726c-.857-.037-21.298-.719-47.34 16.515-25.201 16.676-32.008 28.798-32.701 30.126-1.321 2.528-.848 5.633 1.177 7.731l9.452 9.794c1.931 2.002 4.883 2.677 7.461 1.705l19.49-7.343 5.598 2.808c-.643.558-.991.879-1.034.917-1.988 1.828-2.644 4.671-1.663 7.216l4.764 12.366c.979 2.544 3.404 4.292 6.151 4.435.058.003.54.027 1.407.049l-2.346 5.636-19.767 6.624c-2.616.877-4.398 3.234-4.507 5.963l-.537 13.348c-.11 2.748 1.496 5.304 4.032 6.469.103.047.207.092.312.135 1.425.573 14.805 5.513 45.23 2.398 31.441-3.219 46.492-16.529 47.117-17.094a6.544 6.544 0 0 0 1.945-6.511c-.612-2.38-2.481-4.27-4.89-4.935l-22.518-6.222 3.74-10.55c11.74-2.36 23.251-5.535 34.27-9.456 44.915-15.98 82.752-51.135 84.341-52.625zm-59.319 22.054c-2.285 4.974-8.296 7.113-13.4 4.768-5.104-2.345-7.398-8.299-5.113-13.272 2.285-4.974 8.296-7.113 13.4-4.768 5.104 2.345 7.397 8.299 5.113 13.272z" style="fill:#00a0b0;fill-rule:nonzero;stroke:#fff;stroke-width:2px"/></svg>